# xmcd
#
# Track frame offsets:
#	150
#	20940
#	41037
#	58207
#	79915
#	96927
#	113517
#	130687
#	155245
#	171555
#	194187
#	209770
#	224637
#
# Disc length: 3209 seconds
#
# Revision: 7
# Processed by: cddbd v1.5.2PL0 Copyright (c) Steve Scherf et al.
# Submitted via: EasyCDDAExtractor 15.3.0.1
#
DISCID=d70c870d
DTITLE=Gloria Estefan - Amor Y Suerte - Exitos Romanticos
DYEAR=2004
DGENRE=Latin
TTITLE0=Con Los Años Que Me Quedan
TTITLE1=Como Me Duele Perderte
TTITLE2=Tu Fotografia
TTITLE3=En El Jardin (Duo Con Alejandro Fernandez)
TTITLE4=No Pretendo
TTITLE5=Hablas De Mi
TTITLE6=Mi Buen Amor
TTITLE7=Por Amor (Duo Con Jon Secada)
TTITLE8=Mientras Tanto
TTITLE9=Por Un Beso
TTITLE10=Hoy
TTITLE11=Tengo Que Decirte Algo (Duo Con Jose Feliciano)
TTITLE12=Ay, Ay, Ay Amor
EXTD=
EXTT0=
EXTT1=
EXTT2=
EXTT3=
EXTT4=
EXTT5=
EXTT6=
EXTT7=
EXTT8=
EXTT9=
EXTT10=
EXTT11=
EXTT12=
PLAYORDER=
